<svg width="48" height="48" viewBox="0 0 48 48" fill="none" xmlns="http://www.w3.org/2000/svg">
<g id="01) Icons/Line/arrow-left">
<path id="&#240;&#159;&#142;&#168; Icon &#208;&#161;olor" fill-rule="evenodd" clip-rule="evenodd" d="M38 22.0001H14.27L21.536 13.2801C22.244 12.4321 22.128 11.1701 21.28 10.4641C20.43 9.75606 19.17 9.87206 18.464 10.7201L8.464 22.7201C8.386 22.8141 8.346 22.9241 8.288 23.0281C8.24 23.1121 8.182 23.1841 8.146 23.2761C8.056 23.5061 8.002 23.7481 8.002 23.9921C8.002 23.9941 8 23.9981 8 24.0001C8 24.0021 8.002 24.0061 8.002 24.0081C8.002 24.2521 8.056 24.4941 8.146 24.7241C8.182 24.8161 8.24 24.8881 8.288 24.9721C8.346 25.0761 8.386 25.1861 8.464 25.2801L18.464 37.2801C18.86 37.7541 19.428 38.0001 20 38.0001C20.452 38.0001 20.906 37.8481 21.28 37.5361C22.128 36.8301 22.244 35.5681 21.536 34.7201L14.27 26.0001H38C39.104 26.0001 40 25.1041 40 24.0001C40 22.8961 39.104 22.0001 38 22.0001Z" fill="#312948"/>
<mask id="mask0_4900_15356" style="mask-type:alpha" maskUnits="userSpaceOnUse" x="8" y="10" width="32" height="28">
<path id="&#240;&#159;&#142;&#168; Icon &#208;&#161;olor_2" fill-rule="evenodd" clip-rule="evenodd" d="M38 22.0001H14.27L21.536 13.2801C22.244 12.4321 22.128 11.1701 21.28 10.4641C20.43 9.75606 19.17 9.87206 18.464 10.7201L8.464 22.7201C8.386 22.8141 8.346 22.9241 8.288 23.0281C8.24 23.1121 8.182 23.1841 8.146 23.2761C8.056 23.5061 8.002 23.7481 8.002 23.9921C8.002 23.9941 8 23.9981 8 24.0001C8 24.0021 8.002 24.0061 8.002 24.0081C8.002 24.2521 8.056 24.4941 8.146 24.7241C8.182 24.8161 8.24 24.8881 8.288 24.9721C8.346 25.0761 8.386 25.1861 8.464 25.2801L18.464 37.2801C18.86 37.7541 19.428 38.0001 20 38.0001C20.452 38.0001 20.906 37.8481 21.28 37.5361C22.128 36.8301 22.244 35.5681 21.536 34.7201L14.27 26.0001H38C39.104 26.0001 40 25.1041 40 24.0001C40 22.8961 39.104 22.0001 38 22.0001Z" fill="white"/>
</mask>
<g mask="url(#mask0_4900_15356)">
</g>
</g>
</svg>
