<svg width="19" height="18" viewBox="0 0 19 18" fill="none" xmlns="http://www.w3.org/2000/svg">
<path fill-rule="evenodd" clip-rule="evenodd" d="M18.9866 9C18.9866 4.02944 14.9571 0 9.98657 0C5.01601 0 0.986572 4.02944 0.986572 9C0.986572 13.9706 5.01601 18 9.98657 18C14.9571 18 18.9866 13.9706 18.9866 9ZM6.86307 12.7249L12.9921 6.60005V10.7161C12.9921 10.9525 13.1828 11.1442 13.4179 11.1442C13.6531 11.1442 13.8437 10.9525 13.8437 10.7161V5.57091C13.8437 5.33423 13.6526 5.14246 13.4172 5.14286L13.4098 5.14287L13.4022 5.14288L8.30765 5.15139C8.07249 5.15179 7.88217 5.34375 7.88256 5.58016C7.88295 5.81657 8.07391 6.0079 8.30907 6.0075L12.3839 6.0007L6.26271 12.1178C5.86007 12.5201 6.46043 13.1273 6.86307 12.7249Z" fill="#23A3DA"/>
</svg>
