<svg width="19" height="18" viewBox="0 0 19 18" fill="none" xmlns="http://www.w3.org/2000/svg">
<path fill-rule="evenodd" clip-rule="evenodd" d="M9.98657 18C14.9571 18 18.9866 13.9706 18.9866 9C18.9866 4.02944 14.9571 -1.76132e-07 9.98657 -3.93402e-07C5.01601 -6.10673e-07 0.986572 4.02944 0.986572 9C0.986572 13.9706 5.01601 18 9.98657 18ZM6.26163 5.8765L12.3865 12.0055L8.27046 12.0055C8.03405 12.0055 7.8424 12.1962 7.8424 12.4313C7.8424 12.6665 8.03405 12.8571 8.27046 12.8571L13.4157 12.8571C13.6523 12.8571 13.8441 12.6661 13.8437 12.4306L13.8437 12.4232L13.8437 12.4156L13.8352 7.32108C13.8348 7.08592 13.6428 6.8956 13.4064 6.89599C13.17 6.89638 12.9787 7.08733 12.9791 7.32249L12.9859 11.3974L6.8688 5.27613C6.46643 4.87349 5.85926 5.47386 6.26163 5.8765Z" fill="#23A3DA"/>
</svg>
