<svg width="36" height="36" viewBox="0 0 36 36" fill="none" xmlns="http://www.w3.org/2000/svg">
<path fill-rule="evenodd" clip-rule="evenodd" d="M28.5 16.5H7.5V10.5C7.5 9.6735 8.1735 9 9 9H10.5V10.5C10.5 11.325 11.175 12 12 12C12.825 12 13.5 11.325 13.5 10.5V9H22.5V10.5C22.5 11.325 23.175 12 24 12C24.825 12 25.5 11.325 25.5 10.5V9H27C27.8265 9 28.5 9.6735 28.5 10.5V16.5ZM24 25.5H18C17.175 25.5 16.5 24.825 16.5 24C16.5 23.175 17.175 22.5 18 22.5H24C24.825 22.5 25.5 23.175 25.5 24C25.5 24.825 24.825 25.5 24 25.5ZM12 25.5C11.175 25.5 10.5 24.825 10.5 24C10.5 23.175 11.175 22.5 12 22.5C12.825 22.5 13.5 23.175 13.5 24C13.5 24.825 12.825 25.5 12 25.5ZM27 6H25.5V4.5C25.5 3.675 24.825 3 24 3C23.175 3 22.5 3.675 22.5 4.5V6H13.5V4.5C13.5 3.675 12.825 3 12 3C11.175 3 10.5 3.675 10.5 4.5V6H9C6.519 6 4.5 8.019 4.5 10.5V28.5C4.5 30.981 6.519 33 9 33H27C29.481 33 31.5 30.981 31.5 28.5V10.5C31.5 8.019 29.481 6 27 6Z" fill="#A8A8A8"/>
<mask id="mask0_5398_1894" style="mask-type:alpha" maskUnits="userSpaceOnUse" x="4" y="3" width="28" height="30">
<path fill-rule="evenodd" clip-rule="evenodd" d="M28.5 16.5H7.5V10.5C7.5 9.6735 8.1735 9 9 9H10.5V10.5C10.5 11.325 11.175 12 12 12C12.825 12 13.5 11.325 13.5 10.5V9H22.5V10.5C22.5 11.325 23.175 12 24 12C24.825 12 25.5 11.325 25.5 10.5V9H27C27.8265 9 28.5 9.6735 28.5 10.5V16.5ZM24 25.5H18C17.175 25.5 16.5 24.825 16.5 24C16.5 23.175 17.175 22.5 18 22.5H24C24.825 22.5 25.5 23.175 25.5 24C25.5 24.825 24.825 25.5 24 25.5ZM12 25.5C11.175 25.5 10.5 24.825 10.5 24C10.5 23.175 11.175 22.5 12 22.5C12.825 22.5 13.5 23.175 13.5 24C13.5 24.825 12.825 25.5 12 25.5ZM27 6H25.5V4.5C25.5 3.675 24.825 3 24 3C23.175 3 22.5 3.675 22.5 4.5V6H13.5V4.5C13.5 3.675 12.825 3 12 3C11.175 3 10.5 3.675 10.5 4.5V6H9C6.519 6 4.5 8.019 4.5 10.5V28.5C4.5 30.981 6.519 33 9 33H27C29.481 33 31.5 30.981 31.5 28.5V10.5C31.5 8.019 29.481 6 27 6Z" fill="white"/>
</mask>
<g mask="url(#mask0_5398_1894)">
</g>
</svg>
