<svg width="27" height="20" viewBox="0 0 27 20" fill="none" xmlns="http://www.w3.org/2000/svg">
<path d="M17.9322 10.8167C17.9322 13.4383 15.8069 15.5635 13.1853 15.5635C10.5638 15.5635 8.43848 13.4383 8.43848 10.8167C8.43848 8.1951 10.5638 6.06982 13.1853 6.06982C15.8069 6.06982 17.9322 8.1951 17.9322 10.8167Z" fill="white"/>
<path d="M24.7893 3.16461H20.0792C19.727 3.16461 19.3974 2.98822 19.2016 2.69512L17.7183 0.469903C17.5225 0.17578 17.193 0 16.8404 0H9.53065C9.17847 0 8.8488 0.176188 8.653 0.469903L7.1697 2.69512C6.97389 2.98822 6.64441 3.16461 6.29185 3.16461H1.5822C0.708216 3.16461 0 3.87346 0 4.74681V17.9327C0 18.8064 0.708216 19.5146 1.5822 19.5146H24.7893C25.6633 19.5146 26.3715 18.8064 26.3715 17.9327V4.74681C26.3717 3.87346 25.6635 3.16461 24.7895 3.16461H24.7893ZM13.1857 17.1458C9.69552 17.1458 6.85654 14.307 6.85654 10.8166C6.85654 7.32757 9.69557 4.48738 13.1857 4.48738C16.6759 4.48738 19.5149 7.32763 19.5149 10.8166C19.5149 14.3068 16.6759 17.1458 13.1857 17.1458ZM21.0972 5.54853C21.0972 5.83693 20.8636 6.06973 20.575 6.06973H20.5644C20.276 6.06973 20.042 5.83673 20.042 5.54853V5.53749C20.042 5.2491 20.2758 5.01527 20.5644 5.01527H20.575C20.8634 5.01527 21.0972 5.2491 21.0972 5.53749V5.54853Z" fill="white"/>
<path d="M3.16406 1.05469H5.2738V2.10976H3.16406V1.05469Z" fill="white"/>
</svg>
