<svg width="36" height="36" viewBox="0 0 36 36" fill="none" xmlns="http://www.w3.org/2000/svg">
<path d="M18.333 4.66602C10.7706 4.66602 4.66602 10.7706 4.66602 18.333C4.66602 25.8954 10.7706 32 18.333 32C25.8954 32 32 25.8954 32 18.333C32 10.7706 25.8954 4.66602 18.333 4.66602ZM23.5568 23.6176C23.4354 23.739 23.253 23.7998 23.0708 23.7998C22.8887 23.7998 22.7065 23.739 22.5849 23.5871L17.847 18.7884C17.7256 18.667 17.6648 18.4846 17.6648 18.3025V9.10001C17.6648 8.73562 17.9686 8.40153 18.3633 8.40153C18.7277 8.40153 19.0618 8.70533 19.0618 9.10001L19.062 18.0291L23.5874 22.6456C23.8301 22.9189 23.8301 23.3441 23.5568 23.6176L23.5568 23.6176Z" fill="#A8A8A8"/>
</svg>
