<svg width="27" height="7" viewBox="0 0 27 7" fill="none" xmlns="http://www.w3.org/2000/svg">
<path d="M0.945944 5.51336C1.55162 6.11904 2.3731 6.45931 3.22965 6.45931C4.08621 6.45931 4.90769 6.11904 5.51336 5.51336C6.11904 4.90769 6.45931 4.08621 6.45931 3.22965C6.45931 2.3731 6.11904 1.55162 5.51336 0.945944C4.90769 0.340266 4.08621 0 3.22965 0C2.3731 0 1.55162 0.340266 0.945944 0.945944C0.340266 1.55162 0 2.3731 0 3.22965C0 4.08621 0.340266 4.90769 0.945944 5.51336Z" fill="#33485D"/>
<path d="M11.0966 5.51336C11.7023 6.11904 12.5237 6.45931 13.3803 6.45931C14.2368 6.45931 15.0583 6.11904 15.664 5.51336C16.2697 4.90769 16.6099 4.08621 16.6099 3.22965C16.6099 2.3731 16.2697 1.55162 15.664 0.945944C15.0583 0.340266 14.2368 0 13.3803 0C12.5237 0 11.7023 0.340266 11.0966 0.945944C10.4909 1.55162 10.1506 2.3731 10.1506 3.22965C10.1506 4.08621 10.4909 4.90769 11.0966 5.51336Z" fill="#33485D"/>
<path d="M21.2461 5.51336C21.8518 6.11904 22.6733 6.45931 23.5298 6.45931C24.3864 6.45931 25.2078 6.11904 25.8135 5.51336C26.4192 4.90769 26.7595 4.08621 26.7595 3.22965C26.7595 2.3731 26.4192 1.55162 25.8135 0.945944C25.2078 0.340266 24.3864 0 23.5298 0C22.6733 0 21.8518 0.340266 21.2461 0.945944C20.6404 1.55162 20.3002 2.3731 20.3002 3.22965C20.3002 4.08621 20.6404 4.90769 21.2461 5.51336Z" fill="#33485D"/>
</svg>
