<svg width="16" height="20" viewBox="0 0 16 20" fill="none" xmlns="http://www.w3.org/2000/svg">
<path fill-rule="evenodd" clip-rule="evenodd" d="M13.9654 4.72867L11.2714 2.03467L9.32338 3.98367L12.0184 6.67867L13.9654 4.72867ZM1.09038 15.9957C1.06038 15.9987 1.03038 15.9997 1.00038 15.9997C0.736381 15.9997 0.481381 15.8957 0.292381 15.7067C0.0833808 15.4967 -0.0226192 15.2047 0.00338079 14.9097L0.382381 10.7397C0.424381 10.2827 0.626381 9.85067 0.952381 9.52567L9.94838 0.529675C10.6504 -0.175325 11.9234 -0.140325 12.6644 0.598675L15.4024 3.33667L15.4034 3.33767C16.1684 4.10367 16.1994 5.32167 15.4714 6.05167L6.47438 15.0487C6.14938 15.3737 5.71838 15.5757 5.26038 15.6177L1.09038 15.9957ZM0.999881 18H14.9999C15.5499 18 15.9999 18.45 15.9999 19C15.9999 19.55 15.5499 20 14.9999 20H0.999881C0.449881 20 -0.000119211 19.55 -0.000119211 19C-0.000119211 18.45 0.449881 18 0.999881 18Z" fill="#353535"/>
</svg>
