<svg width="20" height="15" viewBox="0 0 20 15" fill="none" xmlns="http://www.w3.org/2000/svg">
<path fill-rule="evenodd" clip-rule="evenodd" d="M10 6.49989C9.173 6.49989 8.5 7.17289 8.5 7.99989C8.5 8.82689 9.173 9.49989 10 9.49989C10.827 9.49989 11.5 8.82689 11.5 7.99989C11.5 7.17289 10.827 6.49989 10 6.49989ZM10 11.4999C8.07 11.4999 6.5 9.92989 6.5 7.99989C6.5 6.06989 8.07 4.49989 10 4.49989C11.93 4.49989 13.5 6.06989 13.5 7.99989C13.5 9.92989 11.93 11.4999 10 11.4999ZM19.868 7.50189C19.229 6.38989 15.706 0.815888 9.729 1.00289C4.202 1.14389 0.986 6.01389 0.132 7.50189C-0.044 7.81089 -0.044 8.18889 0.132 8.49789C0.762 9.59489 4.162 14.9999 10.025 14.9999C10.106 14.9999 10.188 14.9989 10.271 14.9969C15.798 14.8559 19.014 9.98589 19.868 8.49789C20.044 8.18889 20.044 7.81089 19.868 7.50189Z" fill="#353535"/>
</svg>
