<svg width="24" height="24" viewBox="0 0 24 24" fill="none" xmlns="http://www.w3.org/2000/svg">
<path fill-rule="evenodd" clip-rule="evenodd" d="M7.33 1.95557H16.669C20.07 1.95557 21.99 3.8417 22 7.16712V16.2996C22 19.624 20.07 21.5111 16.669 21.5111H7.33C3.929 21.5111 2 19.624 2 16.2996V7.16712C2 3.8417 3.929 1.95557 7.33 1.95557ZM12.049 17.4631C12.48 17.4631 12.839 17.1502 12.879 16.7298V6.76623C12.919 6.46312 12.77 6.15903 12.5 5.99379C12.219 5.82757 11.879 5.82757 11.61 5.99379C11.339 6.15903 11.19 6.46312 11.219 6.76623V16.7298C11.27 17.1502 11.629 17.4631 12.049 17.4631ZM16.65 17.4631C17.07 17.4631 17.429 17.1502 17.48 16.7298V13.5227C17.509 13.2088 17.36 12.9165 17.089 12.7502C16.82 12.584 16.48 12.584 16.2 12.7502C15.929 12.9165 15.78 13.2088 15.82 13.5227V16.7298C15.86 17.1502 16.219 17.4631 16.65 17.4631ZM8.219 16.7298C8.179 17.1502 7.82 17.4631 7.389 17.4631C6.959 17.4631 6.599 17.1502 6.56 16.7298V9.97334C6.53 9.66926 6.679 9.36712 6.95 9.2009C7.219 9.03468 7.56 9.03468 7.83 9.2009C8.099 9.36712 8.25 9.66926 8.219 9.97334V16.7298Z" fill="#23A3DA"/>
</svg>
