<svg width="24" height="24" viewBox="0 0 24 24" fill="none" xmlns="http://www.w3.org/2000/svg">
<path fill-rule="evenodd" clip-rule="evenodd" d="M18.4434 21H12.8184V15.272H19.3634V20.091C19.3634 20.593 18.9514 21 18.4434 21ZM4.63673 20.0905V15.2725H11.1817V21.0005H5.55673C5.04873 21.0005 4.63673 20.5925 4.63673 20.0905ZM20.0996 7.09082H18.2576C18.4366 6.71782 18.5456 6.30482 18.5456 5.86282C18.5456 4.28482 17.2606 2.99982 15.6816 2.99982C13.8006 2.99982 12.6606 4.31982 11.9996 5.56882C11.3386 4.31982 10.1996 2.99982 8.31863 2.99982C6.73963 2.99982 5.45363 4.28482 5.45363 5.86282C5.45363 6.30482 5.56363 6.71782 5.74263 7.09082H3.90063C3.40363 7.09082 2.99963 7.67682 2.99963 8.40082V12.3268C2.99963 13.0498 3.40363 13.6368 3.90063 13.6368H4.63663H11.1816V7.09082H12.8186V13.6368H19.3636H20.0996C20.5966 13.6368 20.9996 13.0498 20.9996 12.3268V8.40082C20.9996 7.67682 20.5966 7.09082 20.0996 7.09082ZM15.6816 7.09082H13.1006C13.4866 6.07482 14.2806 4.63682 15.6816 4.63682C16.3586 4.63682 16.9096 5.18682 16.9096 5.86282C16.9096 6.53982 16.3586 7.09082 15.6816 7.09082ZM8.31863 7.09082C7.64163 7.09082 7.09063 6.53982 7.09063 5.86282C7.09063 5.18682 7.64163 4.63682 8.31863 4.63682C9.71963 4.63682 10.5136 6.07482 10.8996 7.09082H8.31863Z" fill="#23A3DA"/>
<mask id="mask0_5307_7147" style="mask-type:alpha" maskUnits="userSpaceOnUse" x="2" y="2" width="19" height="20">
<path fill-rule="evenodd" clip-rule="evenodd" d="M18.4434 21H12.8184V15.272H19.3634V20.091C19.3634 20.593 18.9514 21 18.4434 21ZM4.63673 20.0905V15.2725H11.1817V21.0005H5.55673C5.04873 21.0005 4.63673 20.5925 4.63673 20.0905ZM20.0996 7.09082H18.2576C18.4366 6.71782 18.5456 6.30482 18.5456 5.86282C18.5456 4.28482 17.2606 2.99982 15.6816 2.99982C13.8006 2.99982 12.6606 4.31982 11.9996 5.56882C11.3386 4.31982 10.1996 2.99982 8.31863 2.99982C6.73963 2.99982 5.45363 4.28482 5.45363 5.86282C5.45363 6.30482 5.56363 6.71782 5.74263 7.09082H3.90063C3.40363 7.09082 2.99963 7.67682 2.99963 8.40082V12.3268C2.99963 13.0498 3.40363 13.6368 3.90063 13.6368H4.63663H11.1816V7.09082H12.8186V13.6368H19.3636H20.0996C20.5966 13.6368 20.9996 13.0498 20.9996 12.3268V8.40082C20.9996 7.67682 20.5966 7.09082 20.0996 7.09082ZM15.6816 7.09082H13.1006C13.4866 6.07482 14.2806 4.63682 15.6816 4.63682C16.3586 4.63682 16.9096 5.18682 16.9096 5.86282C16.9096 6.53982 16.3586 7.09082 15.6816 7.09082ZM8.31863 7.09082C7.64163 7.09082 7.09063 6.53982 7.09063 5.86282C7.09063 5.18682 7.64163 4.63682 8.31863 4.63682C9.71963 4.63682 10.5136 6.07482 10.8996 7.09082H8.31863Z" fill="white"/>
</mask>
<g mask="url(#mask0_5307_7147)">
</g>
</svg>
