<svg width="24" height="24" viewBox="0 0 24 24" fill="none" xmlns="http://www.w3.org/2000/svg">
<path fill-rule="evenodd" clip-rule="evenodd" d="M16.5778 4C16.335 4 16.1382 4.19682 16.1382 4.43961V6.19805C16.1382 6.44084 16.335 6.63766 16.5778 6.63766C16.8206 6.63766 17.0174 6.44084 17.0174 6.19805V4.43961C17.0174 4.19682 16.8206 4 16.5778 4ZM7.78554 4C7.54275 4 7.34593 4.19682 7.34593 4.43961V6.19805C7.34593 6.44084 7.54275 6.63766 7.78554 6.63766C8.02833 6.63766 8.22515 6.44084 8.22515 6.19805V4.43961C8.22515 4.19682 8.02833 4 7.78554 4ZM9.1045 4.87924H15.259V6.19807C15.259 6.92644 15.8495 7.5169 16.5779 7.5169C17.3062 7.5169 17.8967 6.92644 17.8967 6.19807V4.87924H20.0948C20.8231 4.87924 21.4136 5.4697 21.4136 6.19807V9.27534H2.94995V6.19807C2.94995 5.4697 3.54041 4.87924 4.26878 4.87924H6.46683V6.19807C6.46683 6.92644 7.0573 7.5169 7.78567 7.5169C8.51404 7.5169 9.1045 6.92644 9.1045 6.19807V4.87924ZM21.4136 10.1546V17.6279C21.4136 19.813 19.6422 21.5844 17.4571 21.5844H6.90644C4.72133 21.5844 2.94995 19.813 2.94995 17.6279V10.1546H21.4136ZM7.34617 13.586H15.7659C16.0256 13.586 16.2361 13.3755 16.2361 13.1158C16.2361 12.8562 16.0256 12.6457 15.7659 12.6457H7.34617C7.08652 12.6457 6.87603 12.8562 6.87603 13.1158C6.87603 13.3755 7.08652 13.586 7.34617 13.586ZM12.1819 17.8172H7.34617C7.08652 17.8172 6.87603 17.6067 6.87603 17.3471C6.87603 17.0874 7.08652 16.8769 7.34617 16.8769H12.1819C12.4415 16.8769 12.652 17.0874 12.652 17.3471C12.652 17.6067 12.4415 17.8172 12.1819 17.8172Z" fill="#5E6C84"/>
</svg>
