<svg width="181" height="54" viewBox="0 0 181 54" fill="none" xmlns="http://www.w3.org/2000/svg">
<path d="M0 23.67C0 23.67 10.1115 10.7149 51.8641 13.7032C51.8641 13.7032 117.168 21.5601 143.866 9.68433C143.866 9.68433 136.944 25.0106 58.1427 17.9087C58.1341 17.9 18.2013 13.5712 0 23.67Z" fill="white"/>
<path d="M69.1743 12.3597C69.1743 12.3597 95.3616 -0.506461 126.097 4.40231C127.251 4.5889 128.404 4.8329 129.558 5.11709C136.448 6.83946 165.442 13.6658 178.953 11.2344C178.953 11.2344 162.514 11.1483 135.981 2.57659C135.981 2.57659 102.142 -7.55384 69.1743 12.3597Z" fill="white"/>
<path d="M156.423 13.8323C156.423 13.8323 179.386 17.1221 180.865 25.866C180.865 25.866 181.987 11.2947 156.423 13.8323Z" fill="white"/>
<path d="M49.0361 52.9704H43.5996L39.3629 44.4676L35.7608 35.9246L32.2076 44.5365L28.0574 52.9704H22.6037L10.0955 25.9147H17.3056L25.3377 45.435L33.615 25.9147H37.7998L46.3193 45.435L54.1063 25.9147H61.3164L49.0361 52.9704Z" fill="white"/>
<path d="M88.464 53.002V42.062H71.7192V53.002H65.2935V25.9435H71.7192V37.3456H88.464V25.9435H94.8407V53.002H88.464Z" fill="white"/>
<path d="M100.926 52.9704V25.9061H107.303V52.9704H100.926Z" fill="white"/>
<path d="M129.404 44.9985H119.765V52.9703H113.339V25.906C118.695 25.906 124.048 25.8658 129.404 25.8658C146.05 25.8658 146.099 44.9985 129.404 44.9985ZM119.765 40.3223H129.404C137.629 40.3223 137.583 30.7373 129.404 30.7373H119.765V40.3223Z" fill="white"/>
<path d="M144.689 25.9061H170.876V28.3031L153.208 48.1305H170.876V52.9704H144.253V50.0251L161.535 30.6972H144.692L144.689 25.9061Z" fill="white"/>
</svg>
