<svg width="40" height="40" viewBox="0 0 40 40" fill="none" xmlns="http://www.w3.org/2000/svg">
<path d="M4.824 12.2568C6.2503 9.47345 8.43835 7.13366 11.1436 5.49895C13.8488 3.86424 16.9647 2.99902 20.1429 3C24.7629 3 28.644 4.6632 31.6114 7.3764L26.6966 12.1946C24.9189 10.5298 22.6594 9.68136 20.1429 9.68136C15.6771 9.68136 11.8971 12.6382 10.5514 16.608C10.2086 17.616 10.0131 18.6912 10.0131 19.8C10.0131 20.9088 10.2086 21.984 10.5514 22.992C11.8989 26.9635 15.6771 29.9186 20.1429 29.9186C22.4486 29.9186 24.4114 29.3222 25.9474 28.3142C26.8379 27.7397 27.6002 26.9941 28.1883 26.1227C28.7765 25.2512 29.1782 24.2719 29.3691 23.244H20.1429V16.7458H36.288C36.4903 17.8445 36.6 18.9902 36.6 20.1814C36.6 25.2986 34.7314 29.6062 31.488 32.5294C28.6526 35.0964 24.7714 36.6 20.1429 36.6C17.8914 36.6009 15.6618 36.1669 13.5815 35.323C11.5012 34.479 9.61106 33.2416 8.01902 31.6814C6.42698 30.1212 5.16428 28.2688 4.30309 26.2301C3.4419 24.1915 2.9991 22.0065 3 19.8C3 17.0885 3.66172 14.5248 4.824 12.2568Z" fill="white"/>
</svg>
