<svg width="40" height="40" viewBox="0 0 40 40" fill="none" xmlns="http://www.w3.org/2000/svg">
<path d="M20.4113 11.705C18.9396 11.705 16.6615 10.0317 14.2625 10.0922C11.0974 10.1325 8.19432 11.9267 6.56135 14.7693C3.27527 20.4746 5.71463 28.9014 8.92007 33.5382C10.4926 35.7962 12.3473 38.3363 14.8068 38.2557C17.1655 38.1549 18.0526 36.7235 20.9153 36.7235C23.7578 36.7235 24.5642 38.2557 27.0641 38.1952C29.6042 38.1549 31.217 35.897 32.7694 33.6189C34.5636 30.9981 35.3095 28.4579 35.3498 28.3168C35.2894 28.2966 30.4106 26.4218 30.3502 20.777C30.3098 16.0595 34.2007 13.8016 34.3822 13.7008C32.1646 10.455 28.7575 10.0922 27.5681 10.0115C24.4634 9.7696 21.8628 11.705 20.4113 11.705ZM25.6529 6.9472C26.9633 5.37472 27.8302 3.17728 27.5882 1C25.7134 1.08064 23.4554 2.24992 22.1047 3.8224C20.8951 5.21344 19.8468 7.4512 20.129 9.58816C22.2055 9.74944 24.3425 8.51968 25.6529 6.9472Z" fill="white"/>
</svg>
